<svg xmlns="http://www.w3.org/2000/svg" viewBox="0 0 194.23 31.98"><defs><style>.cls-1{fill:#fff;}</style></defs><title>logo_white</title><g id="Layer_2" data-name="Layer 2"><g id="Layer_1-2" data-name="Layer 1"><path class="cls-1" d="M42.5,14.37c0-6.8,5-11.67,11.81-11.67A11.33,11.33,0,0,1,66.07,14.37a11.81,11.81,0,0,1-2.94,8l1.66,1.93L61.44,27l-1.83-2.1A12.86,12.86,0,0,1,54.3,26C47.47,26,42.5,21.17,42.5,14.37Zm14.14,7-2.47-2.91,3.35-2.74L60,18.66a8.06,8.06,0,0,0,1.15-4.3C61.14,10.14,58.46,7,54.3,7s-6.87,3.18-6.87,7.41,2.67,7.41,6.87,7.41A7.34,7.34,0,0,0,56.64,21.4Z"/><path class="cls-1" d="M80.39,25.63V23.57A7.77,7.77,0,0,1,74.63,26c-3.59,0-5.28-2-5.28-5.14V9.29h4.3V19.2c0,2.27,1.18,3,3,3a4.81,4.81,0,0,0,3.72-1.86V9.29h4.3V25.63Z"/><path class="cls-1" d="M100.18,25.63v-2.1a6.3,6.3,0,0,1-5,2.5C91,26,87.9,22.92,87.9,17.44c0-5.31,3.08-8.56,7.24-8.56a6.24,6.24,0,0,1,5,2.5V9.29h4.33V25.63Zm0-5.28V14.6a4.69,4.69,0,0,0-3.69-1.89c-2.47,0-4.16,1.93-4.16,4.74s1.69,4.77,4.16,4.77A4.66,4.66,0,0,0,100.18,20.35Z"/><path class="cls-1" d="M120,25.63v-2.1a6.3,6.3,0,0,1-5,2.5c-4.09,0-7.24-3.11-7.24-8.59,0-5.31,3.08-8.56,7.24-8.56a6.2,6.2,0,0,1,5,2.5V3.07h4.33V25.63Zm0-5.28V14.57a4.66,4.66,0,0,0-3.69-1.86c-2.47,0-4.16,1.93-4.16,4.74s1.69,4.77,4.16,4.77A4.66,4.66,0,0,0,120,20.35Z"/><path class="cls-1" d="M128.59,25.63V9.29h4.3v2.2a7.17,7.17,0,0,1,5.21-2.6v4.19a5.55,5.55,0,0,0-5.21,1.76V25.63Z"/><path class="cls-1" d="M140.37,5a2.55,2.55,0,0,1,5.11,0,2.55,2.55,0,1,1-5.11,0Zm.41,20.67V9.29h4.3V25.63Z"/><path class="cls-1" d="M148.28,17.44a8.31,8.31,0,0,1,8.66-8.56,7.6,7.6,0,0,1,6.46,2.94l-2.81,2.64a4,4,0,0,0-3.45-1.76c-2.6,0-4.43,1.89-4.43,4.74s1.83,4.77,4.43,4.77a4.07,4.07,0,0,0,3.45-1.79l2.81,2.64a7.62,7.62,0,0,1-6.46,3A8.31,8.31,0,0,1,148.28,17.44Z"/><path class="cls-1" d="M177.45,25.63v-2.1a6.3,6.3,0,0,1-5,2.5c-4.09,0-7.24-3.11-7.24-8.59,0-5.31,3.08-8.56,7.24-8.56a6.24,6.24,0,0,1,5,2.5V9.29h4.33V25.63Zm0-5.28V14.6a4.69,4.69,0,0,0-3.69-1.89c-2.47,0-4.16,1.93-4.16,4.74s1.69,4.77,4.16,4.77A4.66,4.66,0,0,0,177.45,20.35Z"/><path class="cls-1" d="M186,21.54V3.07h4.3V20.39c0,1,.54,1.83,1.49,1.83a2.16,2.16,0,0,0,1.49-.51l.91,3.28a5.37,5.37,0,0,1-3.59,1C187.63,26,186,24.48,186,21.54Z"/><path class="cls-1" d="M0,0V28.28H21.13v-7h7.15V0ZM21.17,14.15H14v7H7.11V7.11H21.17Z"/><rect class="cls-1" x="24.83" y="24.96" width="7.15" height="7.02"/></g></g></svg>